<?xml version="1.0" encoding="utf-8"?>
<!-- Generator: Adobe Illustrator 25.1.0, SVG Export Plug-In . SVG Version: 6.00 Build 0)  -->
<svg version="1.1" id="Layer_1" xmlns="http://www.w3.org/2000/svg" xmlns:xlink="http://www.w3.org/1999/xlink" x="0px" y="0px"
	 viewBox="0 0 515.4 170.1" style="enable-background:new 0 0 515.4 170.1;" xml:space="preserve">
<style type="text/css">
	.st0{clip-path:url(#SVGID_2_);}
	.st1{clip-path:url(#SVGID_4_);fill:#00AA46;}
	.st2{clip-path:url(#SVGID_6_);fill:#00AA46;}
</style>
<g>
	<g>
		<g>
			<defs>
				<rect id="SVGID_1_" width="515.4" height="170.1"/>
			</defs>
			<clipPath id="SVGID_2_">
				<use xlink:href="#SVGID_1_"  style="overflow:visible;"/>
			</clipPath>
			<g class="st0">
				<g>
					<defs>
						<rect id="SVGID_3_" width="515.4" height="170.1"/>
					</defs>
					<clipPath id="SVGID_4_">
						<use xlink:href="#SVGID_3_"  style="overflow:visible;"/>
					</clipPath>
					<path class="st1" d="M61.1,46.8c7.7-7.7,17.7-11,28.2-11h7.8v-7.4h-7.9c-12.5,0-24.3,4.1-33.4,13.2c-9.1,9-13.2,20.7-13.2,33.4
						v19.1c0,0.7-0.1,1.6-0.2,2.2c-0.3,1.4-0.9,2.6-1.8,3.5c-0.9,0.9-1.9,1.3-2.7,1.6c-0.7,0.2-1.6,0.4-2.5,0.6
						c-2.1,0.3-7.1,0.4-7.1,0.4v22.9h6.8c8.7,0,16.7-2.6,22.7-8.6c6-5.9,8.6-13.5,8.6-21.7V75c0-6.2,2-12,6.5-16.5
						C77.5,54,83.4,52,89.5,52h1.1v8.8c-2.1,0.1-3.5,0.3-5.4,0.9c-2,0.6-3.9,1.7-5.6,3.3c-2.8,2.8-3.9,6.3-3.9,10v20
						c0,10.7-3.4,20.6-11.2,28.3c-7.7,7.7-17.7,11-28.2,11h-7.8v7.4h7.9c12.5,0,24.3-4.1,33.4-13.2C79,119.4,83,107.7,83,95V75.9
						c0-0.7,0.1-1.6,0.2-2.2c0.3-1.4,0.9-2.6,1.8-3.5s1.9-1.3,2.7-1.6c0.7-0.2,1.6-0.4,2.5-0.6c2.1-0.3,7.1-0.4,7.1-0.4V44.7h-6.8
						c-8.7,0-16.7,2.6-22.7,8.6c-6,5.9-8.6,13.5-8.6,21.7v20c0,6.2-2,12-6.5,16.5c-4.6,4.5-10.4,6.5-16.5,6.5H35v-9
						c2.1-0.1,3.7-0.4,5.4-0.9c2-0.6,3.9-1.5,5.6-3.1c2.8-2.8,3.9-6.3,3.9-10V75C50,64.3,53.4,54.5,61.1,46.8"/>
				</g>
				<g>
					<defs>
						<rect id="SVGID_5_" width="515.4" height="170.1"/>
					</defs>
					<clipPath id="SVGID_6_">
						<use xlink:href="#SVGID_5_"  style="overflow:visible;"/>
					</clipPath>
					<path class="st2" d="M469.7,92.8H460l4.8-27.3h0.2L469.7,92.8z M456,52l-13.6,66h13.2l2.4-13.4h13.8l2.4,13.4h13.4l-13.4-66
						H456z M422.1,64.4V118h13.3V64.4h11.3V52h-35.9v12.4H422.1z M367.6,52v66h12.6l-0.1-40.2h0.1l13.6,40.2h12.6V52h-12.6l0.1,38.9
						h-0.1L381.1,52H367.6z M341.8,119h0.7c11,0,18.8-5.7,18.8-18.7V52h-13.4v47.9c0,4.5-2.4,6.8-5.5,6.8h-0.5
						c-3.1,0-5.6-2.3-5.6-6.8V52H323v48.4C323,113.4,330.7,119,341.8,119 M280.9,52v66h12.9v-9.6l5.3-12.3l8.3,21.9h13.5l-12.4-32.1
						L320.3,52h-13.5l-12.1,35.6l-0.9,2.8V52H280.9z M259.7,92.8H250l4.8-27.3h0.2L259.7,92.8z M246,52l-13.6,66h13.2l2.4-13.4h13.8
						l2.4,13.4h13.4l-13.4-66H246z M212.1,64.4V118h13.3V64.4h11.3V52h-35.9v12.4H212.1z M187.3,92.8h-9.7l4.8-27.3h0.2L187.3,92.8z
						 M173.7,52l-13.6,66h13.2l2.4-13.4h13.8l2.4,13.4h13.4l-13.4-66H173.7z M138.7,119h1.3c10.3,0,18.2-5.5,18.2-17.3v-1.2
						c0-22.6-24.2-15.9-24.2-26.7v-6.1c0-2.6,1.7-4.6,4.7-4.6h0.9c3.1,0,4.6,2.2,4.6,5.2v9.3h13.2v-10c0-11.9-8.2-16.7-17.5-16.7
						h-1.6c-9.4,0-17.7,5.2-17.7,16.7v6.6c0,22.2,24.2,15.3,24.2,27.1v0.3c0,3.5-2.1,5.3-5.4,5.3H139c-3.9,0-5.7-2-5.7-5.3v-4.1H120
						v4.7C120.1,114.2,128.9,119,138.7,119"/>
				</g>
			</g>
		</g>
	</g>
</g>
</svg>
